<svg id="Layer_1" data-name="Layer 1" xmlns="http://www.w3.org/2000/svg" viewBox="0 0 256.23 72.61"><defs><style>.cls-1{fill:#fff;}</style></defs><title>Burlington with Text WHITE SVG</title><path class="cls-1" d="M20.46,74.32a3.89,3.89,0,0,1,1.27,3A4.29,4.29,0,0,1,21,79.74a5,5,0,0,1-2,1.74,6.56,6.56,0,0,1-2.93.64c-.5,0-1.08,0-1.74-.08L13.41,82q-.51,0-1.17,0l-1.87,0C10,82,9.59,82,9,82c0,0-.08-.05-.08-.15s0-.16.08-.16a4,4,0,0,0,1.25-.14.92.92,0,0,0,.58-.51A2.9,2.9,0,0,0,11,79.91v-12a2.94,2.94,0,0,0-.17-1.13,1,1,0,0,0-.57-.52A4.16,4.16,0,0,0,9,66.08s0-.06,0-.16,0-.16,0-.16l1.36,0c.76,0,1.37,0,1.84,0a13.83,13.83,0,0,0,1.54-.08l.69-.05.92,0a6.06,6.06,0,0,1,3.55.89,2.91,2.91,0,0,1,1.23,2.49,3.44,3.44,0,0,1-.82,2.23,5.26,5.26,0,0,1-2.3,1.59A5.76,5.76,0,0,1,20.46,74.32Zm-6.64-7.77a2.17,2.17,0,0,0-.3,1.37v4.94l1.09,0a2.77,2.77,0,0,0,2.31-1,4.1,4.1,0,0,0,.78-2.59A3.37,3.37,0,0,0,17,67a2.59,2.59,0,0,0-2.05-.8A1.44,1.44,0,0,0,13.82,66.55Zm5.29,11.36a4.75,4.75,0,0,0-1-3.18,3.77,3.77,0,0,0-3-1.19c-.63,0-1.15,0-1.56,0v6.32a2.31,2.31,0,0,0,.15.93,1,1,0,0,0,.6.51,3.79,3.79,0,0,0,1.33.17Q19.11,81.52,19.11,77.91Z" transform="translate(-8.94 -9.78)"/><path class="cls-1" d="M34.71,70.74A2.09,2.09,0,0,0,33,70.16S33,70.11,33,70s0-.15.08-.15l1.07,0c.55,0,1,0,1.38,0s.67,0,1.19,0l1,0s.05.05.05.15,0,.16-.05.16a1.73,1.73,0,0,0-1.48.58,3.31,3.31,0,0,0-.44,2v4.52A5.14,5.14,0,0,1,34.46,81a4.83,4.83,0,0,1-3.6,1.35,6.11,6.11,0,0,1-2.68-.58,4.76,4.76,0,0,1-1.95-1.68,4.54,4.54,0,0,1-.73-2.6V72a3.54,3.54,0,0,0-.13-1.14.81.81,0,0,0-.48-.51,3.37,3.37,0,0,0-1.13-.14c-.05,0-.08,0-.08-.16s0-.15.08-.15l1.22,0c.66,0,1.2,0,1.61,0s1,0,1.72,0l1.2,0s0,.05,0,.15,0,.16,0,.16a3.24,3.24,0,0,0-1.15.15.92.92,0,0,0-.5.54A3.31,3.31,0,0,0,27.71,72v4.8a4.82,4.82,0,0,0,1.07,3.45,3.68,3.68,0,0,0,2.78,1.1,3.46,3.46,0,0,0,2.67-1,4.29,4.29,0,0,0,1-3V72.71A3.07,3.07,0,0,0,34.71,70.74Z" transform="translate(-8.94 -9.78)"/><path class="cls-1" d="M52.52,81.86c0,.1,0,.15-.08.15H48.59c-.28,0-.78-.52-1.49-1.57a44.42,44.42,0,0,1-2.51-4.27,8.32,8.32,0,0,1-1.12.07l-.63,0v3.69A4.17,4.17,0,0,0,43,81.07a.74.74,0,0,0,.47.5,3.43,3.43,0,0,0,1.13.13s0,.06,0,.16,0,.15,0,.15c-.5,0-.9,0-1.2,0l-1.71,0L40,82c-.32,0-.74,0-1.28,0,0,0,0-.05,0-.15s0-.16,0-.16a3.65,3.65,0,0,0,1.15-.13.76.76,0,0,0,.49-.5,3.76,3.76,0,0,0,.13-1.16V72a3.54,3.54,0,0,0-.13-1.14.85.85,0,0,0-.49-.51,3.47,3.47,0,0,0-1.12-.14s0,0,0-.16,0-.15,0-.15l1.27,0c.66,0,1.19,0,1.59,0s.63,0,.91,0l.73-.05c.57,0,1.09-.08,1.56-.08a5.42,5.42,0,0,1,2.92.65,2.09,2.09,0,0,1,1,1.87,3.27,3.27,0,0,1-.62,1.9,4.28,4.28,0,0,1-1.72,1.4,36.85,36.85,0,0,0,2.42,3.68,8.35,8.35,0,0,0,1.85,1.87,3,3,0,0,0,1.74.56C52.49,81.7,52.52,81.76,52.52,81.86Zm-8.87-6.09a2.69,2.69,0,0,0,2.13-.7,3.13,3.13,0,0,0,.6-2.08c0-1.83-.72-2.75-2.16-2.75-.57,0-.94.11-1.12.35A2.62,2.62,0,0,0,42.84,72v3.74C43,75.77,43.27,75.77,43.65,75.77Z" transform="translate(-8.94 -9.78)"/><path class="cls-1" d="M56.78,79.8a3.21,3.21,0,0,0,.14,1.07.9.9,0,0,0,.52.51,3.54,3.54,0,0,0,1.13.14h.78a3.79,3.79,0,0,0,2.53-.93,5.3,5.3,0,0,0,1.56-2.53s.07,0,.17,0,.14,0,.14.07a27.88,27.88,0,0,0-.18,3.54.4.4,0,0,1-.09.29.45.45,0,0,1-.3.09H52.85s-.05-.05-.05-.15,0-.16.05-.16a3.14,3.14,0,0,0,1.07-.13.72.72,0,0,0,.46-.5,4.69,4.69,0,0,0,.11-1.16V72a4.4,4.4,0,0,0-.11-1.14.8.8,0,0,0-.46-.51,3.09,3.09,0,0,0-1.07-.14s-.05,0-.05-.16,0-.15.05-.15l1.25,0c.7,0,1.23,0,1.61,0s1,0,1.72,0l1.17,0s.08.05.08.15,0,.16-.08.16a3.72,3.72,0,0,0-1.18.14.85.85,0,0,0-.51.52A3.72,3.72,0,0,0,56.78,72Z" transform="translate(-8.94 -9.78)"/><path class="cls-1" d="M69.31,81.07a.76.76,0,0,0,.5.5A3.54,3.54,0,0,0,71,81.7s0,.06,0,.16S71,82,71,82c-.52,0-.93,0-1.22,0L68,82,66.4,82c-.31,0-.74,0-1.27,0q-.06,0-.06-.15c0-.1,0-.16.06-.16a3.75,3.75,0,0,0,1.17-.13.76.76,0,0,0,.49-.5,3.76,3.76,0,0,0,.13-1.16V72a3.54,3.54,0,0,0-.13-1.14.86.86,0,0,0-.51-.51,3.59,3.59,0,0,0-1.15-.14s-.06,0-.06-.16,0-.15.06-.15l1.27,0c.66,0,1.2,0,1.61,0s1,0,1.74,0l1.2,0s0,.05,0,.15,0,.16,0,.16a3.23,3.23,0,0,0-1.13.15.91.91,0,0,0-.51.54A3.68,3.68,0,0,0,69.18,72v7.9A3.76,3.76,0,0,0,69.31,81.07Z" transform="translate(-8.94 -9.78)"/><path class="cls-1" d="M86.29,70c0,.11,0,.16-.08.16a1.66,1.66,0,0,0-1.48.69A4,4,0,0,0,84.26,73V82.3s0,.06-.13.08-.15,0-.18,0L75,72l0,0v6.94A4,4,0,0,0,75.38,81a1.63,1.63,0,0,0,1.45.67s0,.06,0,.16,0,.15,0,.15c-.42,0-.74,0-1,0l-1.17,0L73.5,82c-.25,0-.58,0-1,0,0,0,0-.05,0-.15s0-.16,0-.16A1.63,1.63,0,0,0,74,81a3.9,3.9,0,0,0,.46-2.16V71.35a5.92,5.92,0,0,0-1.13-.92,1.94,1.94,0,0,0-1-.27s0,0,0-.16,0-.15,0-.15l1.45,0h2.06a.52.52,0,0,1,.36.13,2.44,2.44,0,0,1,.42.52l.54.7,6.58,7.59V73a4.14,4.14,0,0,0-.44-2.18,1.57,1.57,0,0,0-1.43-.68c-.05,0-.08,0-.08-.16s0-.15.08-.15l1,0c.49,0,.88,0,1.17,0s.7,0,1.22,0l1,0C86.26,69.85,86.29,69.9,86.29,70Z" transform="translate(-8.94 -9.78)"/><path class="cls-1" d="M90.64,81.46a6.07,6.07,0,0,1-3.15-5.32,6.51,6.51,0,0,1,.92-3.52A5.9,5.9,0,0,1,91,70.33a9.27,9.27,0,0,1,4-.8,10.64,10.64,0,0,1,2.14.21,5.93,5.93,0,0,1,1.73.6.52.52,0,0,1,.21.21,1.07,1.07,0,0,1,.08.36l.16,2.45s0,.08-.15.09-.15,0-.17-.07q-1.64-3.33-4.62-3.33a3.78,3.78,0,0,0-3.16,1.51,6.79,6.79,0,0,0-1.16,4.24,7.87,7.87,0,0,0,.58,3.13,4.77,4.77,0,0,0,1.68,2.12,4.39,4.39,0,0,0,2.58.76,4.24,4.24,0,0,0,1.66-.24,1.24,1.24,0,0,0,.7-.85,7.87,7.87,0,0,0,.18-2,2.93,2.93,0,0,0-.11-.95.68.68,0,0,0-.5-.36,6.47,6.47,0,0,0-1.31-.09c-.1,0-.16-.07-.16-.21a.37.37,0,0,1,0-.15.12.12,0,0,1,.09-.06c.9.07,1.81.1,2.73.1.42,0,1.11,0,2.08,0a.09.09,0,0,1,.09.07.19.19,0,0,1,0,.11c0,.12,0,.19-.13.19a1.12,1.12,0,0,0-.61.07.63.63,0,0,0-.22.43,9.6,9.6,0,0,0,0,1.16,15.13,15.13,0,0,0,.06,1.64,4.62,4.62,0,0,1,.07.65c0,.1,0,.17,0,.19a1.08,1.08,0,0,1-.26.12,13.46,13.46,0,0,1-5,.73A7.3,7.3,0,0,1,90.64,81.46Z" transform="translate(-8.94 -9.78)"/><path class="cls-1" d="M102,73.38c0,.05-.07.08-.16.08s-.13,0-.13-.08c.07-.53.14-1.24.22-2.12s.12-1.53.12-2a.12.12,0,0,1,.14-.13c.1,0,.15,0,.15.13,0,.23.13.37.39.43a4.35,4.35,0,0,0,1,.1c1.49,0,2.8,0,3.93,0l2.26,0c.3,0,.69,0,1.2,0a6.74,6.74,0,0,0,1.48-.12.77.77,0,0,0,.62-.51s.08-.08.17-.08.15,0,.15.08,0,.36-.06.78,0,1-.07,1.63-.07,1.25-.08,1.8c0,.05,0,.08-.16.08s-.16,0-.16-.08a3.55,3.55,0,0,0-.92-2.23,2.59,2.59,0,0,0-2-.84,1.32,1.32,0,0,0-1,.34,2.13,2.13,0,0,0-.28,1.3v8a3.38,3.38,0,0,0,.15,1.16.79.79,0,0,0,.56.5,4.63,4.63,0,0,0,1.32.13s.08.06.08.16,0,.15-.08.15c-.55,0-1,0-1.32,0l-1.9,0-1.82,0c-.33,0-.79,0-1.38,0,0,0,0-.05,0-.15s0-.16,0-.16a4.89,4.89,0,0,0,1.34-.13.82.82,0,0,0,.57-.5,3.43,3.43,0,0,0,.14-1.16v-8a4.8,4.8,0,0,0-.07-1,.69.69,0,0,0-.34-.45,2.1,2.1,0,0,0-.83-.13C103.62,70.31,102.56,71.34,102,73.38Z" transform="translate(-8.94 -9.78)"/><path class="cls-1" d="M117.89,81.46a6,6,0,0,1-2.23-2.33,6.52,6.52,0,0,1-.8-3.17,5.87,5.87,0,0,1,1-3.46,6.58,6.58,0,0,1,2.64-2.21,7.73,7.73,0,0,1,3.3-.76,5.88,5.88,0,0,1,3.25.9,6.21,6.21,0,0,1,2.17,2.33,6.3,6.3,0,0,1,.77,3,6.11,6.11,0,0,1-.91,3.25,6.88,6.88,0,0,1-5.93,3.31A6.24,6.24,0,0,1,117.89,81.46Zm6.55-1.14a6.77,6.77,0,0,0,1-3.95,8.71,8.71,0,0,0-.55-3.13A5.29,5.29,0,0,0,123.34,71a3.68,3.68,0,0,0-2.39-.83,3,3,0,0,0-2.6,1.3,6.46,6.46,0,0,0-.91,3.74,9.29,9.29,0,0,0,.56,3.34,5.68,5.68,0,0,0,1.54,2.36,3.38,3.38,0,0,0,2.27.86A3.05,3.05,0,0,0,124.44,80.32Z" transform="translate(-8.94 -9.78)"/><path class="cls-1" d="M143.2,70c0,.11,0,.16-.08.16a1.66,1.66,0,0,0-1.48.69,4,4,0,0,0-.47,2.17V82.3s0,.06-.12.08a.19.19,0,0,1-.19,0l-9-10.37,0,0v6.94A3.9,3.9,0,0,0,132.3,81a1.6,1.6,0,0,0,1.44.67s0,.06,0,.16,0,.15,0,.15c-.42,0-.74,0-1,0l-1.17,0-1.2,0c-.24,0-.58,0-1,0q-.06,0-.06-.15c0-.1,0-.16.06-.16a1.66,1.66,0,0,0,1.47-.67,4,4,0,0,0,.45-2.16V71.35a5.62,5.62,0,0,0-1.13-.92,1.94,1.94,0,0,0-.95-.27s-.05,0-.05-.16,0-.15.05-.15l1.46,0h2.05a.52.52,0,0,1,.36.13,2.17,2.17,0,0,1,.42.52l.55.7,6.57,7.59V73a4,4,0,0,0-.44-2.18,1.56,1.56,0,0,0-1.43-.68c-.05,0-.08,0-.08-.16s0-.15.08-.15l1,0c.49,0,.88,0,1.18,0s.7,0,1.22,0l1,0C143.18,69.85,143.2,69.9,143.2,70Z" transform="translate(-8.94 -9.78)"/><path class="cls-1" d="M163,65.69a7.17,7.17,0,0,1,2,.57.52.52,0,0,1,.3.19.92.92,0,0,1,.09.41l.32,3.38c0,.05,0,.08-.13.1s-.14,0-.16-.08a6.34,6.34,0,0,0-2.27-3.09,6.1,6.1,0,0,0-3.58-1.07,5.17,5.17,0,0,0-4.24,1.9,7.91,7.91,0,0,0-1.53,5.1,11.22,11.22,0,0,0,.84,4.39,7.83,7.83,0,0,0,2.34,3.17,5.29,5.29,0,0,0,3.34,1.17q3.51,0,5.33-4.36c0-.07.08-.1.17-.08s.15,0,.15.1l-.39,3.33a1.27,1.27,0,0,1-.12.4.72.72,0,0,1-.3.2,12.9,12.9,0,0,1-4.81.91A10.14,10.14,0,0,1,155,81.07a8,8,0,0,1-3.1-3.22,8.74,8.74,0,0,1-1-4,7.35,7.35,0,0,1,1.34-4.34,8.89,8.89,0,0,1,3.55-2.94,11,11,0,0,1,4.73-1A15,15,0,0,1,163,65.69Z" transform="translate(-8.94 -9.78)"/><path class="cls-1" d="M182.62,81.86c0,.1,0,.15-.08.15-.52,0-.93,0-1.22,0l-1.67,0L178,82c-.3,0-.7,0-1.22,0-.05,0-.08-.05-.08-.15s0-.16.08-.16a3.47,3.47,0,0,0,1.13-.13.77.77,0,0,0,.48-.5,3.76,3.76,0,0,0,.13-1.16V76.19h-6.6v3.72a3.76,3.76,0,0,0,.13,1.16.74.74,0,0,0,.49.5,3.54,3.54,0,0,0,1.14.13s.06.06.06.16,0,.15-.06.15c-.52,0-.92,0-1.22,0l-1.69,0-1.61,0c-.31,0-.74,0-1.27,0q-.06,0-.06-.15c0-.1,0-.16.06-.16a3.65,3.65,0,0,0,1.15-.13.77.77,0,0,0,.51-.5,3.76,3.76,0,0,0,.13-1.16V72a3.54,3.54,0,0,0-.13-1.14.86.86,0,0,0-.51-.51,3.54,3.54,0,0,0-1.13-.14s-.05,0-.05-.16,0-.15.05-.15l1.25,0c.69,0,1.23,0,1.61,0s1,0,1.72,0l1.19,0s.06.05.06.15,0,.16-.06.16a3.23,3.23,0,0,0-1.13.15.86.86,0,0,0-.5.54,3.68,3.68,0,0,0-.13,1.16v3.56h6.6V72a3.68,3.68,0,0,0-.13-1.16.9.9,0,0,0-.49-.54,3.17,3.17,0,0,0-1.12-.15c-.05,0-.08,0-.08-.16s0-.15.08-.15l1.19,0c.7,0,1.26,0,1.69,0s1,0,1.67,0l1.22,0c.05,0,.08.05.08.15s0,.16-.08.16a3.48,3.48,0,0,0-1.14.14.84.84,0,0,0-.5.51,3.85,3.85,0,0,0-.13,1.14v8a4.1,4.1,0,0,0,.13,1.16.76.76,0,0,0,.5.5,3.54,3.54,0,0,0,1.14.13C182.59,81.7,182.62,81.76,182.62,81.86Z" transform="translate(-8.94 -9.78)"/><path class="cls-1" d="M198,81.86c0,.1,0,.15-.1.15-.35,0-.89,0-1.61-.05l-1.56,0c-.28,0-.71,0-1.3,0s-.95.05-1.17.05-.11-.05-.11-.15,0-.16.11-.16a2,2,0,0,0,.89-.15.53.53,0,0,0,.28-.5,3.55,3.55,0,0,0-.39-1.22l-1.64-3.51h-3.23l-1,2.5a5,5,0,0,0-.44,1.66,1,1,0,0,0,.46.94,2.68,2.68,0,0,0,1.39.28c.09,0,.13.06.13.16s0,.15-.13.15c-.24,0-.59,0-1-.05s-.94,0-1.35,0-.95,0-1.54,0-.94.05-1.27.05c-.09,0-.13-.05-.13-.15s0-.16.13-.16a3,3,0,0,0,1.3-.23,2.4,2.4,0,0,0,.91-.87,13.08,13.08,0,0,0,1-2l3.84-9.12a.18.18,0,0,1,.16-.11.13.13,0,0,1,.13.11l4.19,9a17.59,17.59,0,0,0,1.08,2.08,2.8,2.8,0,0,0,.85.93,2.28,2.28,0,0,0,1.11.24C198,81.7,198,81.76,198,81.86Zm-9.59-6.14h2.7l-1.43-3.07Z" transform="translate(-8.94 -9.78)"/><path class="cls-1" d="M215,81.86q0,.15-.06.15c-.46,0-.84,0-1.11,0l-1.56,0-1.77,0c-.3,0-.7,0-1.22,0q-.06,0-.06-.15c0-.1,0-.16.06-.16a3.59,3.59,0,0,0,1.19-.14.86.86,0,0,0,.54-.51,3,3,0,0,0,.09-1.14l-.42-8.27-4.19,10.19a.18.18,0,0,1-.18.11.22.22,0,0,1-.21-.11l-4.94-9.64L201,78.87a3.76,3.76,0,0,0,.43,2.16,1.6,1.6,0,0,0,1.44.67s.08.06.08.16,0,.15-.08.15c-.4,0-.71,0-.94,0l-1.19,0-1.2,0c-.24,0-.58,0-1,0,0,0-.05-.05-.05-.15s0-.16.05-.16A1.66,1.66,0,0,0,200,81a4.15,4.15,0,0,0,.48-2.16l.15-7.54a2.36,2.36,0,0,0-2-1.17s0,0,0-.16,0-.15,0-.15l1.93,0,1.48,0a.81.81,0,0,1,.6.24,5.8,5.8,0,0,1,.65,1.11l3.92,7.64,3.41-8.34A1,1,0,0,1,211,70a.75.75,0,0,1,.46-.18l1.54,0,1.9,0s0,.05,0,.15,0,.16,0,.16a2.47,2.47,0,0,0-1.49.35A1.58,1.58,0,0,0,213,71.9l.42,8a5.77,5.77,0,0,0,.15,1.17.71.71,0,0,0,.41.49,2.41,2.41,0,0,0,.94.13S215,81.76,215,81.86Z" transform="translate(-8.94 -9.78)"/><path class="cls-1" d="M227,76.15a2.53,2.53,0,0,1,1.05,2.17,3.19,3.19,0,0,1-.64,2,4.1,4.1,0,0,1-1.78,1.34,6.66,6.66,0,0,1-2.6.48c-.47,0-1,0-1.64-.08l-.88-.05q-.53,0-1.14,0l-1.59,0c-.31,0-.74,0-1.27,0q-.06,0-.06-.15c0-.1,0-.16.06-.16a3.75,3.75,0,0,0,1.17-.13.76.76,0,0,0,.49-.5,3.76,3.76,0,0,0,.13-1.16V72a3.54,3.54,0,0,0-.13-1.14.85.85,0,0,0-.49-.51,3.59,3.59,0,0,0-1.15-.14s0,0,0-.16,0-.15,0-.15l1.25,0c.69,0,1.22,0,1.59,0s1,0,1.58-.07c.19,0,.47,0,.82,0l.92,0a5.7,5.7,0,0,1,3,.66,2.09,2.09,0,0,1,1.08,1.89,2.44,2.44,0,0,1-.73,1.75A4.86,4.86,0,0,1,224,75.28,5.62,5.62,0,0,1,227,76.15Zm-5.89-5.9a.81.81,0,0,0-.44.55,4,4,0,0,0-.13,1.21v3.25l1.19,0a5.38,5.38,0,0,0,1.56-.18,1.5,1.5,0,0,0,.87-.69,3,3,0,0,0,.3-1.49c0-1.88-.8-2.81-2.42-2.81A2.27,2.27,0,0,0,221.15,70.25ZM225.7,79c0-2.14-1.37-3.2-4.11-3.2l-1,0v4.14A1.92,1.92,0,0,0,221,81.3a2.37,2.37,0,0,0,1.61.4C224.67,81.7,225.7,80.78,225.7,79Z" transform="translate(-8.94 -9.78)"/><path class="cls-1" d="M240.08,78.48c.08,0,.13,0,.13.08a30.4,30.4,0,0,0-.19,3.07.46.46,0,0,1-.07.29.44.44,0,0,1-.32.09H230s-.05-.05-.05-.15,0-.16.05-.16a3.65,3.65,0,0,0,1.15-.13.76.76,0,0,0,.49-.5,3.76,3.76,0,0,0,.13-1.16V72a3.54,3.54,0,0,0-.13-1.14.85.85,0,0,0-.49-.51,3.59,3.59,0,0,0-1.15-.14s-.05,0-.05-.16,0-.15.05-.15h9.21c.17,0,.26.07.26.2l0,1.62c0,.33,0,.74,0,1.25,0,0,0,.07-.14.07s-.16,0-.17-.07a3.81,3.81,0,0,0-1.28-2,3,3,0,0,0-2-.79h-.36a2.49,2.49,0,0,0-1,.15.77.77,0,0,0-.45.51A4.4,4.4,0,0,0,234,72v3.53c1.43,0,2.47-.09,3.09-.16s1-.12,1.07-.12.09.06.11.18a1.61,1.61,0,0,1,0,.39,2.06,2.06,0,0,1,0,.44c0,.14-.06.21-.11.21s-.45,0-1.07-.14a27.43,27.43,0,0,0-3.09-.2V79.8a4.57,4.57,0,0,0,.11,1.14.81.81,0,0,0,.45.52,2.72,2.72,0,0,0,1,.14h.59a3.54,3.54,0,0,0,2.24-.86,5,5,0,0,0,1.56-2.18S240,78.48,240.08,78.48Z" transform="translate(-8.94 -9.78)"/><path class="cls-1" d="M255.78,81.86c0,.1,0,.15-.08.15h-3.85c-.27,0-.77-.52-1.49-1.57a44.42,44.42,0,0,1-2.51-4.27,8.22,8.22,0,0,1-1.12.07l-.62,0v3.69a4.17,4.17,0,0,0,.12,1.16.7.7,0,0,0,.46.5,3.47,3.47,0,0,0,1.13.13s.06.06.06.16,0,.15-.06.15c-.5,0-.9,0-1.19,0l-1.72,0-1.61,0c-.31,0-.74,0-1.27,0q-.06,0-.06-.15c0-.1,0-.16.06-.16a3.54,3.54,0,0,0,1.14-.13.74.74,0,0,0,.49-.5,3.76,3.76,0,0,0,.13-1.16V72a3.54,3.54,0,0,0-.13-1.14.82.82,0,0,0-.49-.51,3.42,3.42,0,0,0-1.12-.14s-.05,0-.05-.16,0-.15.05-.15l1.28,0c.65,0,1.18,0,1.58,0s.63,0,.91,0l.73-.05c.57,0,1.09-.08,1.56-.08a5.4,5.4,0,0,1,2.92.65,2.1,2.1,0,0,1,1,1.87,3.21,3.21,0,0,1-.63,1.9,4.25,4.25,0,0,1-1.71,1.4,37.06,37.06,0,0,0,2.41,3.68A8.35,8.35,0,0,0,254,81.14a3,3,0,0,0,1.74.56C255.75,81.7,255.78,81.76,255.78,81.86Zm-8.87-6.09a2.7,2.7,0,0,0,2.14-.7,3.18,3.18,0,0,0,.59-2.08c0-1.83-.72-2.75-2.15-2.75-.58,0-1,.11-1.12.35a2.53,2.53,0,0,0-.26,1.42v3.74A7.91,7.91,0,0,0,246.91,75.77Z" transform="translate(-8.94 -9.78)"/><path class="cls-1" d="M259.52,73.55A11,11,0,0,0,261.79,75c.74.4,1.33.74,1.78,1a3.94,3.94,0,0,1,1.13,1.1,2.74,2.74,0,0,1,.47,1.59,3.13,3.13,0,0,1-.59,1.84A3.94,3.94,0,0,1,263,81.85a5.64,5.64,0,0,1-2.37.48,7.77,7.77,0,0,1-2.13-.28,4.21,4.21,0,0,1-1.51-.66c-.14-.07-.22-.25-.23-.55l-.16-2.8v0c0-.07,0-.11.13-.12a.17.17,0,0,1,.18.09,9.47,9.47,0,0,0,1.77,2.68A3.23,3.23,0,0,0,261,81.78a2,2,0,0,0,1.38-.49A1.87,1.87,0,0,0,263,79.8a2.51,2.51,0,0,0-.79-1.93,10.86,10.86,0,0,0-2.33-1.55,18,18,0,0,1-1.65-1,4.32,4.32,0,0,1-1-1,2.54,2.54,0,0,1-.43-1.49A2.73,2.73,0,0,1,258,70.41a5.26,5.26,0,0,1,3.06-.88,8.12,8.12,0,0,1,3,.6.8.8,0,0,1,.29.21.59.59,0,0,1,.1.29l.06,2.39c0,.07,0,.11-.13.13a.17.17,0,0,1-.19-.05,5,5,0,0,0-.62-1.21,4.84,4.84,0,0,0-1.24-1.28,2.86,2.86,0,0,0-1.72-.56,1.81,1.81,0,0,0-1.38.5,1.78,1.78,0,0,0-.47,1.27A2.2,2.2,0,0,0,259.52,73.55Z" transform="translate(-8.94 -9.78)"/><path class="cls-1" d="M142.21,31.1a8.62,8.62,0,0,1,1.47-.41,13,13,0,0,1,2.22-.15,6.56,6.56,0,0,1,2.91.75,16.7,16.7,0,0,0,8.67-9,11.38,11.38,0,0,0,.84-4.26,5.81,5.81,0,0,0-1.17-3.66,15.23,15.23,0,0,0-1.29.81l-1.34,1a48.19,48.19,0,0,0-6.16,5.43,121.06,121.06,0,0,0-9,10.93,64.94,64.94,0,0,1-9.71,10.64,35.8,35.8,0,0,1-9.41,6.07,17,17,0,0,1-6.16.95A7.39,7.39,0,0,1,109.87,49a3.42,3.42,0,0,1-1.74-2.86,2.12,2.12,0,0,1,1.74-2.23,3.35,3.35,0,0,1,.89-.12,1.67,1.67,0,0,1,.91.3,1,1,0,0,1,.46.92,1.32,1.32,0,0,1-.46,1,1.85,1.85,0,0,1-1.26.4,2,2,0,0,1-1.19-.28v.17a2.6,2.6,0,0,0,1.36,2.24,5.63,5.63,0,0,0,3.12.87,12.52,12.52,0,0,0,2.87-.27,9.71,9.71,0,0,0,2.42-1,20.72,20.72,0,0,0,3-2.13q1.64-1.36,3.87-3.58L131,37l6.91-7.55q9.82-11.13,18.63-15.81-3.21-3.21-10.63-3.22-8.64,0-17.06,6.36a35.4,35.4,0,0,0-6.72,6.51c-1.79,2.37-2.69,4.43-2.69,6.16a2.92,2.92,0,0,0,2.35,3,7.07,7.07,0,0,0,1.88.2,9.82,9.82,0,0,0,3.06-.65,18.42,18.42,0,0,0,3.75-1.82,24.78,24.78,0,0,0,3.68-2.81,24.92,24.92,0,0,0,3.25-3.62,19.26,19.26,0,0,0,3.86-8.95c.11-.6.25-.9.43-.9s.27.21.27.62a17.37,17.37,0,0,1-3,9.68,20.33,20.33,0,0,1-7.19,6.6A17.9,17.9,0,0,1,123,33.28a4.06,4.06,0,0,1-4-2.18,5.36,5.36,0,0,1-.39-2.38,9.76,9.76,0,0,1,1.09-4,18.88,18.88,0,0,1,3-4.5,27.82,27.82,0,0,1,4.55-4.07,34.67,34.67,0,0,1,5.68-3.33,32.24,32.24,0,0,1,13.71-3.05c4.76,0,8.5,1,11.25,3.13a17,17,0,0,1,7-2c.62,0,.92.09.92.28s-.16.16-.5.21a14,14,0,0,0-1.45.29,20.22,20.22,0,0,0-5.24,1.88,8.22,8.22,0,0,1,2.63,6.21c0,2.39-1.12,4.78-3.35,7.19a21.38,21.38,0,0,1-7.73,5.2,7.11,7.11,0,0,1,2.24,5.62,9.53,9.53,0,0,1-2.32,6,16.86,16.86,0,0,1-9.54,5.85,15.88,15.88,0,0,1-3.64.47,8.55,8.55,0,0,1-2.57-.29,4.35,4.35,0,0,1-1.43-.74,2.43,2.43,0,0,1-1-1.92,4.9,4.9,0,0,1,.59-2.24,10.84,10.84,0,0,1,1.61-2.25,17.19,17.19,0,0,1,2.42-2.15,19.23,19.23,0,0,1,3-1.82A15.41,15.41,0,0,1,146.41,37c.39,0,.58.12.58.36s-.38.36-1.16.36a10.56,10.56,0,0,0-2.71.42,17.24,17.24,0,0,0-3,1.15,19.22,19.22,0,0,0-2.8,1.68,16.83,16.83,0,0,0-2.29,2c-1.44,1.5-2.15,2.88-2.15,4.15,0,1.53,1.27,2.29,3.83,2.29a10.17,10.17,0,0,0,5.65-2,16,16,0,0,0,6.49-8.9,12.64,12.64,0,0,0,.56-3.51,4.5,4.5,0,0,0-.42-2.28,15.71,15.71,0,0,1-4.85,1,5.47,5.47,0,0,1-2.63-.42q-.66-.42-.66-.81a1,1,0,0,1,.38-.72A3.7,3.7,0,0,1,142.21,31.1Zm5.73.59a3.89,3.89,0,0,0-2-.51,12.21,12.21,0,0,0-1.74.09,6.48,6.48,0,0,0-1,.22c-.62.17-.92.35-.92.56,0,.45.54.67,1.62.67A11,11,0,0,0,147.94,31.69Z" transform="translate(-8.94 -9.78)"/></svg>