<svg width="446" height="302" viewBox="0 0 446 302" fill="none" xmlns="http://www.w3.org/2000/svg">
<path d="M109 248.003C191.494 230.574 240.07 227.184 336.5 248.003C250.757 319.122 200.981 320.103 109 248.003Z" fill="#FFFFFF"/>
<path d="M109 248.002C58.7654 174.503 65.8771 134.971 100.5 65.5024C53.477 83.6177 32.2625 93.9327 0 112.502L65.5 265.502L109 248.002Z" fill="#FFFFFF"/>
<path d="M337 248.502C387.235 175.003 380.123 135.471 345.5 66.0024C392.523 84.1177 413.738 94.4327 446 113.002L380.5 266.002L337 248.502Z" fill="#FFFFFF"/>
<path d="M167 84.0024L89.5 103.002L94 118.002C131.205 100.813 125.892 113.811 107.5 146.502C140.711 131.078 134.808 149.681 103 214.502L138.5 204.002L138.985 203.048C167.084 147.699 182.989 116.369 148.5 122.002L167 84.0024Z" fill="#FFFFFF"/>
<path d="M182 98.0015V198.501H239.5V183.001H209V157.501H239.5V141.502H209V116.001H245.5V98.0015H182Z" fill="#FFFFFF"/>
<path d="M267 102.501L255.5 200.501L283 203.001L290 163.501L313.5 167.501L306.5 208.501L333.5 214.501L356.5 119.501L326.5 113.001L317.5 149.501L293 145.001L298.5 106.001L267 102.501Z" fill="#FFFFFF"/>
<path d="M99 66.5015C198.727 39.1469 256.508 40.0036 347.5 66.5015C256.187 -20.872 196.743 -22.1391 99 66.5015Z" fill="#FFFFFF"/>
</svg>
